<svg width="600" height="1450" viewBox="0 0 600 1450" fill="none" xmlns="http://www.w3.org/2000/svg">
<g opacity="0.5">
<path opacity="0.0344828" d="M415.5 312.722C408.454 304.325 397.853 299.147 383.987 297.068C370.113 294.987 353.033 296.019 333.148 299.994C293.38 307.942 242.604 327.614 184.258 357.296C67.5799 416.653 -79.1718 515.939 -228.322 641.09C-377.472 766.242 -500.732 893.524 -579.448 998.122C-618.811 1050.43 -647.001 1097.02 -661.735 1134.8C-669.102 1153.69 -673.085 1170.33 -673.445 1184.36C-673.804 1198.37 -670.546 1209.71 -663.5 1218.11C-656.455 1226.51 -645.854 1231.68 -631.988 1233.76C-618.114 1235.85 -601.033 1234.81 -581.149 1230.84C-541.381 1222.89 -490.605 1203.22 -432.259 1173.54C-315.581 1114.18 -168.829 1014.89 -19.6789 889.741C129.471 764.59 252.731 637.308 331.447 532.71C370.811 480.404 399.001 433.816 413.734 396.032C421.101 377.14 425.084 360.498 425.444 346.474C425.803 332.457 422.545 321.118 415.5 312.722Z" stroke="#2B2C3B" stroke-width="2"/>
<path opacity="0.0689655" d="M373.992 261.795C366.242 254.044 355.23 249.81 341.235 248.947C327.233 248.083 310.307 250.6 290.845 256.293C251.921 267.677 203.053 291.699 147.516 326.354C36.4547 395.654 -101.085 507.352 -238.76 645.027C-376.435 782.702 -488.132 920.242 -557.433 1031.3C-592.088 1086.84 -616.11 1135.71 -627.494 1174.63C-633.187 1194.09 -635.704 1211.02 -634.84 1225.02C-633.977 1239.02 -629.743 1250.03 -621.992 1257.78C-614.242 1265.53 -603.23 1269.76 -589.235 1270.63C-575.232 1271.49 -558.307 1268.97 -538.845 1263.28C-499.921 1251.9 -451.053 1227.87 -395.515 1193.22C-284.454 1123.92 -146.914 1012.22 -9.23965 874.547C128.435 736.872 240.133 599.332 309.433 488.272C344.088 432.734 368.11 383.866 379.495 344.942C385.187 325.48 387.704 308.555 386.84 294.552C385.977 280.557 381.743 269.545 373.992 261.795Z" stroke="#2B2C3B" stroke-width="2"/>
<path opacity="0.103448" d="M328.694 214.656C320.298 207.61 308.959 204.352 294.942 204.712C280.917 205.071 264.276 209.054 245.384 216.421C207.6 231.155 161.012 259.345 108.706 298.708C4.10776 377.424 -123.174 500.684 -248.326 649.834C-373.477 798.984 -472.762 945.736 -532.12 1062.41C-561.802 1120.76 -581.474 1171.54 -589.422 1211.3C-593.397 1231.19 -594.429 1248.27 -592.348 1262.14C-590.269 1276.01 -585.091 1286.61 -576.694 1293.66C-568.298 1300.7 -556.959 1303.96 -542.942 1303.6C-528.917 1303.24 -512.276 1299.26 -493.384 1291.89C-455.6 1277.16 -409.012 1248.97 -356.706 1209.6C-252.108 1130.89 -124.826 1007.63 0.325511 858.477C125.477 709.327 224.762 562.575 284.12 445.897C313.802 387.551 333.474 336.775 341.422 297.007C345.397 277.123 346.429 260.042 344.348 246.168C342.269 232.302 337.091 221.701 328.694 214.656Z" stroke="#2B2C3B" stroke-width="2"/>
<path opacity="0.137931" d="M279.951 171.622C270.973 165.335 259.393 163.078 245.461 164.658C231.521 166.239 215.29 171.657 197.112 180.642C160.756 198.613 116.802 230.756 68.1258 274.528C-29.2138 362.061 -145.268 495.945 -256.944 655.436C-368.621 814.926 -454.738 969.772 -503.7 1091.18C-528.184 1151.89 -543.356 1204.19 -547.808 1244.5C-550.034 1264.65 -549.574 1281.76 -546.292 1295.4C-543.012 1309.03 -536.93 1319.14 -527.951 1325.43C-518.972 1331.71 -507.392 1333.97 -493.461 1332.39C-479.521 1330.81 -463.289 1325.39 -445.111 1316.41C-408.756 1298.44 -364.801 1266.29 -316.125 1222.52C-218.786 1134.99 -102.731 1001.1 8.94487 841.613C120.621 682.123 206.738 527.277 255.7 405.869C280.184 345.158 295.356 292.861 299.808 252.551C302.035 232.396 301.575 215.291 298.292 201.651C295.012 188.019 288.93 177.909 279.951 171.622Z" stroke="#2B2C3B" stroke-width="2"/>
<path opacity="0.172414" d="M228.134 132.981C218.641 127.5 206.909 126.261 193.168 129.049C179.418 131.839 163.721 138.651 146.395 149.186C111.744 170.257 70.7588 206.109 26.0831 253.957C-63.2571 349.641 -167.201 493.13 -264.552 661.747C-361.903 830.363 -434.196 992.126 -472.391 1117.34C-491.49 1179.95 -502.046 1233.37 -502.968 1273.92C-503.43 1294.19 -501.48 1311.19 -497.022 1324.49C-492.566 1337.79 -485.626 1347.33 -476.134 1352.81C-466.641 1358.29 -454.909 1359.53 -441.168 1356.74C-427.418 1353.95 -411.721 1347.14 -394.395 1336.6C-359.744 1315.53 -318.759 1279.68 -274.083 1231.83C-184.743 1136.15 -80.7986 992.658 16.5521 824.042C113.903 655.426 186.196 493.663 224.391 368.45C243.491 305.836 254.046 252.415 254.969 211.871C255.43 191.599 253.481 174.599 249.022 161.296C244.566 148.002 237.626 138.461 228.134 132.981Z" stroke="#2B2C3B" stroke-width="2"/>
<path opacity="0.206897" d="M173.636 98.9802C163.702 94.3479 151.906 94.1355 138.461 98.1107C125.007 102.088 109.963 110.242 93.6213 122.248C60.9386 146.259 23.2336 185.546 -17.1019 237.106C-97.7627 340.212 -188.805 492.215 -271.09 668.674C-353.374 845.134 -411.294 1012.58 -438.43 1140.65C-452 1204.69 -457.86 1258.82 -455.245 1299.3C-453.937 1319.53 -450.514 1336.3 -444.913 1349.16C-439.315 1362.01 -431.57 1370.91 -421.636 1375.55C-411.702 1380.18 -399.906 1380.39 -386.461 1376.42C-373.007 1372.44 -357.963 1364.28 -341.621 1352.28C-308.939 1328.27 -271.234 1288.98 -230.898 1237.42C-150.237 1134.31 -59.1948 982.312 23.0896 805.852C105.374 629.393 163.294 461.945 190.43 333.879C204 269.839 209.86 215.702 207.245 175.231C205.937 154.996 202.514 138.23 196.913 125.367C191.315 112.512 183.57 103.612 173.636 98.9802Z" stroke="#2B2C3B" stroke-width="2"/>
<path opacity="0.241379" d="M116.874 69.8356C106.574 66.0867 94.8042 66.9032 81.7561 72.0352C68.7001 77.1701 54.4244 86.6044 39.1912 99.9886C8.72547 126.756 -25.4118 169.18 -61.1001 224.059C-132.468 333.803 -209.916 493.163 -276.508 676.122C-343.1 859.082 -386.205 1030.94 -402.076 1160.88C-410.013 1225.86 -411.132 1280.31 -405 1320.39C-401.934 1340.44 -397.062 1356.84 -390.361 1369.17C-383.665 1381.49 -375.173 1389.68 -364.874 1393.43C-354.574 1397.17 -342.804 1396.36 -329.756 1391.23C-316.7 1386.09 -302.424 1376.66 -287.191 1363.27C-256.725 1336.5 -222.588 1294.08 -186.9 1239.2C-115.532 1129.46 -38.0839 970.098 28.5079 787.139C95.0998 604.179 138.205 432.32 154.076 302.377C162.013 237.398 163.132 182.956 157 142.867C153.934 122.823 149.062 106.42 142.362 94.0937C135.665 81.7753 127.174 73.5844 116.874 69.8356Z" stroke="#2B2C3B" stroke-width="2"/>
<path opacity="0.275862" d="M58.278 45.733C47.6906 42.8961 36.0369 44.7353 23.4857 50.9849C10.927 57.2382 -2.47215 67.8808 -16.4809 82.5417C-44.4977 111.863 -74.8076 157.101 -105.577 214.881C-167.108 330.428 -230.373 495.931 -280.765 683.998C-331.158 872.065 -359.121 1047.03 -363.606 1177.86C-365.849 1243.28 -362.219 1297.62 -352.616 1337.02C-347.815 1356.72 -341.532 1372.63 -333.783 1384.33C-326.038 1396.02 -316.865 1403.44 -306.278 1406.27C-295.69 1409.11 -284.037 1407.27 -271.485 1401.02C-258.927 1394.77 -245.527 1384.13 -231.519 1369.46C-203.502 1340.14 -173.192 1294.91 -142.423 1237.12C-80.8913 1121.58 -17.6269 956.075 32.7656 768.008C83.158 579.941 111.121 404.979 115.607 274.147C117.85 208.723 114.22 154.391 104.617 114.99C99.8153 95.2886 93.5326 79.3723 85.7831 67.6774C78.0382 55.9895 68.8655 48.5699 58.278 45.733Z" stroke="#2B2C3B" stroke-width="2"/>
<path opacity="0.310345" d="M-1.70526 26.8043C-12.4997 24.901 -23.9487 27.7489 -35.9074 35.0686C-47.8734 42.3927 -60.2939 54.1626 -72.9716 69.9887C-98.3263 101.64 -124.578 149.348 -150.195 209.59C-201.421 330.059 -250.02 500.446 -283.83 692.19C-317.639 883.934 -330.247 1060.67 -323.313 1191.39C-319.845 1256.76 -311.494 1310.57 -298.493 1348.99C-291.993 1368.19 -284.347 1383.5 -275.608 1394.48C-266.874 1405.45 -257.089 1412.04 -246.295 1413.94C-235.5 1415.84 -224.051 1413 -212.093 1405.68C-200.127 1398.35 -187.706 1386.58 -175.028 1370.76C-149.674 1339.1 -123.422 1291.4 -97.8054 1231.15C-46.5789 1110.69 2.02023 940.298 35.8298 748.555C69.6394 556.811 82.247 380.078 75.3127 249.353C71.8452 183.982 63.4935 130.173 50.4933 91.7589C43.993 72.5512 36.347 57.243 27.6077 46.2681C18.8737 35.2996 9.08914 28.7077 -1.70526 26.8043Z" stroke="#2B2C3B" stroke-width="2"/>
<path opacity="0.344828" d="M-62.6193 13.1541C-73.5385 12.1988 -84.6957 16.0337 -95.9711 24.3679C-107.253 32.707 -118.601 45.5146 -129.851 62.3854C-152.35 96.1261 -174.344 145.94 -194.613 208.186C-235.145 332.662 -268.709 506.636 -285.678 700.597C-302.647 894.557 -299.804 1071.72 -281.503 1201.34C-272.351 1266.16 -259.341 1319.04 -243.042 1356.17C-234.893 1374.74 -225.942 1389.32 -216.279 1399.49C-206.622 1409.66 -196.3 1415.37 -185.381 1416.33C-174.462 1417.28 -163.305 1413.45 -152.029 1405.12C-140.747 1396.78 -129.4 1383.97 -118.15 1367.1C-95.6502 1333.36 -73.6563 1283.54 -53.3877 1221.3C-12.8557 1096.82 20.7082 922.847 37.6776 728.887C54.647 534.926 51.8033 357.766 33.502 228.143C24.3502 163.324 11.3406 110.447 -4.95822 73.3121C-13.1078 54.744 -22.0589 40.1605 -31.7215 29.989C-41.3783 19.8235 -51.7001 14.1094 -62.6193 13.1541Z" stroke="#2B2C3B" stroke-width="2"/>
<path opacity="0.37931" d="M-124 4.84155C-134.961 4.84155 -145.742 9.63428 -156.248 18.9194C-166.76 28.2101 -176.948 41.958 -186.685 59.7451C-206.158 95.3184 -223.727 146.86 -238.493 210.635C-268.022 338.17 -286.296 514.407 -286.296 709.109C-286.296 903.81 -268.022 1080.05 -238.493 1207.58C-223.727 1271.36 -206.158 1322.9 -186.685 1358.47C-176.948 1376.26 -166.76 1390.01 -156.248 1399.3C-145.742 1408.58 -134.961 1413.38 -124 1413.38C-113.039 1413.38 -102.259 1408.58 -91.7528 1399.3C-81.2404 1390.01 -71.0524 1376.26 -61.3155 1358.47C-41.8422 1322.9 -24.2735 1271.36 -9.50719 1207.58C20.0218 1080.05 38.2952 903.81 38.2952 709.109C38.2952 514.407 20.0218 338.17 -9.50719 210.635C-24.2735 146.86 -41.8422 95.3184 -61.3155 59.7451C-71.0524 41.958 -81.2404 28.2101 -91.7528 18.9194C-102.259 9.63428 -113.039 4.84155 -124 4.84155Z" stroke="#2B2C3B" stroke-width="2"/>
<path opacity="0.413793" d="M-185.381 1.8889C-196.301 2.84421 -206.622 8.55828 -216.279 18.7238C-225.942 28.8953 -234.893 43.4788 -243.042 62.0469C-259.341 99.182 -272.351 152.058 -281.503 216.878C-299.804 346.501 -302.648 523.661 -285.678 717.621C-268.709 911.582 -235.145 1085.56 -194.613 1210.03C-174.344 1272.28 -152.351 1322.09 -129.851 1355.83C-118.601 1372.7 -107.253 1385.51 -95.9712 1393.85C-84.6959 1402.18 -73.5387 1406.02 -62.6195 1405.06C-51.7003 1404.11 -41.3785 1398.39 -31.7217 1388.23C-22.0591 1378.06 -13.108 1363.47 -4.9584 1344.91C11.3404 1307.77 24.3501 1254.89 33.5018 1190.07C51.8031 1060.45 54.6468 883.292 37.6774 689.331C20.7081 495.371 -12.8559 321.396 -53.3879 196.921C-73.6564 134.675 -95.6503 84.8609 -118.15 51.1202C-129.4 34.2494 -140.748 21.4417 -152.03 13.1027C-163.305 4.76849 -174.462 0.933593 -185.381 1.8889Z" stroke="#2B2C3B" stroke-width="2"/>
<path opacity="0.448276" d="M-246.295 4.27711C-257.09 6.18045 -266.874 12.7724 -275.608 23.7408C-284.348 34.7158 -291.994 50.024 -298.494 69.2317C-311.494 107.646 -319.846 161.455 -323.313 226.826C-330.248 357.551 -317.64 534.284 -283.83 726.027C-250.021 917.771 -201.422 1088.16 -150.195 1208.63C-124.579 1268.87 -98.3269 1316.58 -72.9722 1348.23C-60.2945 1364.05 -47.8739 1375.82 -35.908 1383.15C-23.9492 1390.47 -12.5002 1393.32 -1.7058 1391.41C9.0886 1389.51 18.8731 1382.92 27.6072 1371.95C36.3465 1360.97 43.9925 1345.67 50.4928 1326.46C63.493 1288.04 71.8447 1234.24 75.3122 1168.86C82.2464 1038.14 69.6388 861.406 35.8293 669.663C2.01968 477.919 -46.5794 307.532 -97.806 187.063C-123.422 126.82 -149.674 79.1128 -175.029 47.4615C-187.707 31.6354 -200.127 19.8655 -212.093 12.5414C-224.052 5.22166 -235.501 2.37377 -246.295 4.27711Z" stroke="#2B2C3B" stroke-width="2"/>
<path opacity="0.482759" d="M-306.278 11.9467C-316.866 14.7836 -326.038 22.2032 -333.783 33.8912C-341.533 45.586 -347.815 61.5024 -352.617 81.2035C-362.22 120.605 -365.85 174.937 -363.607 240.361C-359.121 371.193 -331.158 546.155 -280.766 734.222C-230.373 922.289 -167.109 1087.79 -105.578 1203.34C-74.8082 1261.12 -44.4983 1306.36 -16.4815 1335.68C-2.47271 1350.34 10.9264 1360.98 23.4852 1367.24C36.0364 1373.48 47.69 1375.32 58.2775 1372.49C68.8649 1369.65 78.0377 1362.23 85.7825 1350.54C93.5321 1338.85 99.8147 1322.93 104.616 1303.23C114.219 1263.83 117.849 1209.5 115.606 1144.07C111.12 1013.24 83.1575 838.279 32.765 650.212C-17.6275 462.144 -80.8918 296.641 -142.423 181.095C-173.193 123.315 -203.502 78.0765 -231.519 48.7555C-245.528 34.0945 -258.927 23.4519 -271.486 17.1986C-284.037 10.949 -295.691 9.1098 -306.278 11.9467Z" stroke="#2B2C3B" stroke-width="2"/>
<path opacity="0.517241" d="M-364.874 24.79C-375.174 28.5389 -383.665 36.7297 -390.362 49.0482C-397.063 61.374 -401.934 77.7773 -405 97.8219C-411.133 137.91 -410.014 192.352 -402.077 257.332C-386.206 387.275 -343.1 559.134 -276.508 742.093C-209.916 925.053 -132.468 1084.41 -61.1007 1194.16C-25.4124 1249.03 8.72492 1291.46 39.1906 1318.23C54.4239 1331.61 68.6996 1341.05 81.7555 1346.18C94.8037 1351.31 106.573 1352.13 116.873 1348.38C127.173 1344.63 135.664 1336.44 142.361 1324.12C149.062 1311.8 153.933 1295.39 156.999 1275.35C163.132 1235.26 162.013 1180.82 154.076 1115.84C138.205 985.895 95.0992 814.036 28.5074 631.077C-38.0845 448.117 -115.533 288.758 -186.9 179.014C-222.589 124.135 -256.726 81.7107 -287.192 54.943C-302.425 41.5588 -316.701 32.1245 -329.756 26.9896C-342.805 21.8577 -354.574 21.0412 -364.874 24.79Z" stroke="#2B2C3B" stroke-width="2"/>
<path opacity="0.551724" d="M-421.636 42.6723C-431.57 47.3046 -439.315 56.2043 -444.913 69.0596C-450.514 81.9225 -453.937 98.688 -455.245 118.924C-457.86 159.394 -452 213.531 -438.43 277.571C-411.294 405.637 -353.374 573.085 -271.09 749.544C-188.805 926.004 -97.7628 1078.01 -17.102 1181.11C23.2335 1232.67 60.9384 1271.96 93.6212 1295.97C109.963 1307.98 125.007 1316.13 138.46 1320.11C151.906 1324.08 163.702 1323.87 173.636 1319.24C183.57 1314.61 191.315 1305.71 196.913 1292.85C202.514 1279.99 205.937 1263.22 207.245 1242.99C209.86 1202.52 204 1148.38 190.43 1084.34C163.294 956.274 105.374 788.826 23.0895 612.366C-59.1949 435.907 -150.237 283.904 -230.898 180.798C-271.234 129.238 -308.939 89.9506 -341.621 65.9401C-357.963 53.9345 -373.007 45.7803 -386.461 41.8028C-399.906 37.8276 -411.702 38.04 -421.636 42.6723Z" stroke="#2B2C3B" stroke-width="2"/>
<path opacity="0.586207" d="M-476.134 65.4103C-485.626 70.8907 -492.566 80.4316 -497.022 93.7258C-501.481 107.028 -503.43 124.028 -502.969 144.301C-502.046 184.845 -491.491 238.265 -472.391 300.879C-434.197 426.092 -361.903 587.855 -264.552 756.471C-167.201 925.088 -63.2574 1068.58 26.0828 1164.26C70.7585 1212.11 111.744 1247.96 146.395 1269.03C163.721 1279.57 179.418 1286.38 193.167 1289.17C206.909 1291.96 218.641 1290.72 228.134 1285.24C237.626 1279.76 244.566 1270.22 249.022 1256.92C253.48 1243.62 255.429 1226.62 254.968 1206.35C254.046 1165.8 243.49 1112.38 224.391 1049.77C186.196 924.555 113.903 762.792 16.5518 594.176C-80.799 425.559 -184.743 282.07 -274.083 186.386C-318.759 138.538 -359.744 102.686 -394.395 81.6157C-411.721 71.0801 -427.419 64.2681 -441.168 61.4783C-454.909 58.6901 -466.641 59.9298 -476.134 65.4103Z" stroke="#2B2C3B" stroke-width="2"/>
<path opacity="0.62069" d="M-527.951 92.7919C-536.93 99.0788 -543.012 109.188 -546.292 122.82C-549.574 136.46 -550.034 153.566 -547.808 173.721C-543.356 214.03 -528.184 266.327 -503.7 327.039C-454.738 448.446 -368.621 603.293 -256.944 762.783C-145.268 922.273 -29.2138 1056.16 68.1258 1143.69C116.802 1187.46 160.756 1219.61 197.112 1237.58C215.29 1246.56 231.521 1251.98 245.461 1253.56C259.393 1255.14 270.973 1252.88 279.951 1246.6C288.93 1240.31 295.012 1230.2 298.292 1216.57C301.575 1202.93 302.035 1185.82 299.808 1165.67C295.356 1125.36 280.184 1073.06 255.7 1012.35C206.738 890.942 120.621 736.095 8.9449 576.605C-102.731 417.115 -218.786 283.231 -316.125 195.698C-364.801 151.925 -408.756 119.782 -445.111 101.812C-463.289 92.8263 -479.521 87.4083 -493.461 85.8274C-507.392 84.2475 -518.972 86.505 -527.951 92.7919Z" stroke="#2B2C3B" stroke-width="2"/>
<path opacity="0.655172" d="M-576.694 124.561C-585.091 131.607 -590.269 142.208 -592.348 156.074C-594.429 169.948 -593.397 187.028 -589.422 206.913C-581.474 246.681 -561.802 297.457 -532.12 355.803C-472.762 472.481 -373.477 619.233 -248.326 768.383C-123.174 917.533 4.10772 1040.79 108.706 1119.51C161.012 1158.87 207.6 1187.06 245.384 1201.8C264.276 1209.16 280.917 1213.15 294.942 1213.51C308.959 1213.87 320.298 1210.61 328.694 1203.56C337.091 1196.52 342.269 1185.91 344.348 1172.05C346.429 1158.17 345.397 1141.09 341.422 1121.21C333.474 1081.44 313.802 1030.67 284.12 972.32C224.762 855.642 125.477 708.89 0.325505 559.74C-124.826 410.59 -252.108 287.33 -356.706 208.614C-409.012 169.25 -455.6 141.06 -493.384 126.327C-512.276 118.96 -528.917 114.977 -542.942 114.617C-556.959 114.258 -568.298 117.516 -576.694 124.561Z" stroke="#2B2C3B" stroke-width="2"/>
<path opacity="0.689655" d="M-621.992 160.439C-629.743 168.189 -633.977 179.201 -634.84 193.196C-635.704 207.199 -633.187 224.124 -627.495 243.586C-616.11 282.51 -592.088 331.378 -557.433 386.916C-488.133 497.977 -376.435 635.517 -238.76 773.191C-101.086 910.866 36.4545 1022.56 147.515 1091.86C203.053 1126.52 251.921 1150.54 290.845 1161.93C310.307 1167.62 327.232 1170.14 341.235 1169.27C355.23 1168.41 366.242 1164.17 373.992 1156.42C381.743 1148.67 385.977 1137.66 386.84 1123.67C387.704 1109.66 385.187 1092.74 379.494 1073.28C368.11 1034.35 344.088 985.484 309.433 929.947C240.132 818.886 128.435 681.346 -9.23987 543.671C-146.915 405.996 -284.455 294.299 -395.515 224.998C-451.053 190.343 -499.921 166.321 -538.845 154.937C-558.307 149.244 -575.233 146.727 -589.235 147.591C-603.23 148.454 -614.242 152.688 -621.992 160.439Z" stroke="#2B2C3B" stroke-width="2"/>
<path opacity="0.724138" d="M-663.501 200.106C-670.546 208.503 -673.804 219.842 -673.445 233.858C-673.085 247.883 -669.102 264.524 -661.735 283.417C-647.002 321.2 -618.811 367.789 -579.448 420.094C-500.732 524.693 -377.472 651.974 -228.322 777.126C-79.172 902.278 67.5797 1001.56 184.258 1060.92C242.604 1090.6 293.38 1110.27 333.148 1118.22C353.033 1122.2 370.113 1123.23 383.987 1121.15C397.853 1119.07 408.454 1113.89 415.5 1105.49C422.545 1097.1 425.803 1085.76 425.444 1071.74C425.084 1057.72 421.101 1041.08 413.734 1022.18C399.001 984.401 370.81 937.812 331.447 885.506C252.731 780.908 129.471 653.627 -19.679 528.475C-168.829 403.323 -315.581 304.038 -432.259 244.681C-490.605 214.998 -541.381 195.327 -581.149 187.378C-601.034 183.404 -618.114 182.371 -631.988 184.452C-645.854 186.532 -656.455 191.709 -663.501 200.106Z" stroke="#2B2C3B" stroke-width="2"/>
<path opacity="0.758621" d="M-700.902 243.218C-707.189 252.196 -709.447 263.776 -707.867 277.708C-706.286 291.648 -700.868 307.879 -691.882 326.057C-673.912 362.413 -641.769 406.367 -597.997 455.043C-510.463 552.383 -376.579 668.437 -217.089 780.113C-57.599 891.79 97.2476 977.907 218.655 1026.87C279.366 1051.35 331.664 1066.52 371.973 1070.98C392.128 1073.2 409.233 1072.74 422.874 1069.46C436.506 1066.18 446.615 1060.1 452.902 1051.12C459.189 1042.14 461.446 1030.56 459.866 1016.63C458.286 1002.69 452.867 986.458 443.882 968.28C425.912 931.925 393.768 887.97 349.996 839.294C262.463 741.955 128.579 625.9 -30.9114 514.224C-190.402 402.548 -345.248 316.431 -466.656 267.469C-527.367 242.985 -579.664 227.813 -619.973 223.361C-640.129 221.134 -657.234 221.594 -670.874 224.877C-684.506 228.157 -694.615 234.239 -700.902 243.218Z" stroke="#2B2C3B" stroke-width="2"/>
<path opacity="0.793103" d="M-733.914 289.405C-739.394 298.897 -740.634 310.63 -737.846 324.371C-735.056 338.12 -728.244 353.817 -717.708 371.143C-696.637 405.794 -660.786 446.779 -612.938 491.455C-517.254 580.795 -373.764 684.739 -205.148 782.09C-36.5315 879.441 125.231 951.735 250.444 989.929C313.058 1009.03 366.479 1019.58 407.023 1020.51C427.295 1020.97 444.296 1019.02 457.598 1014.56C470.892 1010.1 480.433 1003.16 485.913 993.672C491.394 984.179 492.633 972.447 489.845 958.706C487.055 944.957 480.243 929.259 469.708 911.933C448.637 877.282 412.785 836.297 364.937 791.621C269.254 702.281 125.764 598.337 -42.8525 500.986C-211.469 403.635 -373.232 331.342 -498.445 293.147C-561.059 274.048 -614.479 263.492 -655.023 262.57C-675.296 262.109 -692.296 264.058 -705.598 268.516C-718.892 272.972 -728.433 279.912 -733.914 289.405Z" stroke="#2B2C3B" stroke-width="2"/>
<path opacity="0.827586" d="M-762.283 338.27C-766.916 348.204 -767.128 360 -763.153 373.446C-759.175 386.9 -751.021 401.944 -739.016 418.285C-715.005 450.968 -675.718 488.673 -624.158 529.009C-521.052 609.669 -369.049 700.712 -192.589 782.996C-16.13 865.281 151.318 923.201 279.383 950.337C343.424 963.907 397.561 969.766 438.031 967.151C458.267 965.844 475.032 962.421 487.895 956.82C500.751 951.222 509.65 943.477 514.283 933.543C518.915 923.609 519.127 911.813 515.152 898.367C511.175 884.913 503.02 869.87 491.015 853.528C467.004 820.845 427.717 783.14 376.157 742.805C273.051 662.144 121.048 571.101 -55.4114 488.817C-231.871 406.533 -399.319 348.613 -527.384 321.477C-591.425 307.907 -645.562 302.047 -686.032 304.662C-706.268 305.969 -723.033 309.393 -735.896 314.994C-748.751 320.591 -757.651 328.336 -762.283 338.27Z" stroke="#2B2C3B" stroke-width="2"/>
<path opacity="0.862069" d="M-785.794 389.403C-789.543 399.703 -788.727 411.472 -783.595 424.52C-778.46 437.576 -769.026 451.852 -755.641 467.085C-728.874 497.551 -686.45 531.688 -631.571 567.377C-521.827 638.744 -362.467 716.192 -179.508 782.784C3.45166 849.376 175.311 892.482 305.254 908.353C370.233 916.289 424.675 917.409 464.763 911.276C484.808 908.21 501.211 903.339 513.537 896.638C525.856 889.941 534.046 881.45 537.795 871.15C541.544 860.85 540.728 849.081 535.596 836.032C530.461 822.976 521.026 808.701 507.642 793.467C480.875 763.002 438.45 728.864 383.572 693.176C273.828 621.809 114.468 544.36 -68.4913 477.769C-251.451 411.177 -423.31 368.071 -553.253 352.2C-618.232 344.263 -672.674 343.144 -712.763 349.276C-732.807 352.343 -749.21 357.214 -761.536 363.915C-773.855 370.612 -782.046 379.103 -785.794 389.403Z" stroke="#2B2C3B" stroke-width="2"/>
<path opacity="0.896552" d="M-804.27 442.368C-807.107 452.955 -805.268 464.609 -799.018 477.16C-792.765 489.719 -782.122 503.118 -767.461 517.127C-738.14 545.144 -692.902 575.454 -635.122 606.223C-519.575 667.754 -354.072 731.019 -166.005 781.411C22.062 831.804 197.024 859.767 327.856 864.252C393.28 866.495 447.612 862.865 487.013 853.262C506.714 848.461 522.631 842.178 534.326 834.429C546.014 826.684 553.433 817.511 556.27 806.924C559.107 796.336 557.268 784.683 551.018 772.131C544.765 759.573 534.122 746.173 519.461 732.165C490.14 704.148 444.902 673.838 387.122 643.068C271.575 581.537 106.072 518.273 -81.9948 467.88C-270.062 417.488 -445.024 389.525 -575.856 385.039C-641.28 382.796 -695.612 386.426 -735.013 396.029C-754.714 400.831 -770.631 407.113 -782.326 414.863C-794.014 422.608 -801.433 431.781 -804.27 442.368Z" stroke="#2B2C3B" stroke-width="2"/>
<path opacity="0.931035" d="M-817.568 496.72C-819.471 507.514 -816.623 518.963 -809.304 530.922C-801.98 542.888 -790.21 555.308 -774.384 567.986C-742.732 593.341 -695.025 619.593 -634.782 645.209C-514.313 696.436 -343.926 745.035 -152.182 778.844C39.5613 812.654 216.295 825.261 347.019 818.327C412.39 814.86 466.199 806.508 504.613 793.508C523.821 787.007 539.129 779.361 550.104 770.622C561.073 761.888 567.665 752.104 569.568 741.309C571.471 730.515 568.624 719.066 561.304 707.107C553.98 695.141 542.21 682.72 526.384 670.043C494.732 644.688 447.025 618.436 386.782 592.82C266.313 541.593 95.9259 492.994 -95.8177 459.185C-287.561 425.375 -464.295 412.767 -595.019 419.702C-660.39 423.169 -714.199 431.521 -752.613 444.521C-771.821 451.021 -787.129 458.667 -798.104 467.407C-809.073 476.141 -815.665 485.925 -817.568 496.72Z" stroke="#2B2C3B" stroke-width="2"/>
<path opacity="0.965517" d="M-825.587 552.004C-826.542 562.924 -822.707 574.081 -814.373 585.356C-806.034 596.638 -793.226 607.986 -776.356 619.236C-742.615 641.735 -692.801 663.729 -630.555 683.998C-506.079 724.53 -332.105 758.094 -138.144 775.063C55.8161 792.033 232.976 789.189 362.599 770.888C427.418 761.736 480.295 748.726 517.43 732.427C535.998 724.278 550.582 715.327 560.753 705.664C570.919 696.007 576.633 685.686 577.588 674.766C578.543 663.847 574.708 652.69 566.374 641.415C558.035 630.133 545.227 618.785 528.357 607.535C494.616 585.035 444.802 563.041 382.556 542.773C258.08 502.241 84.1061 468.677 -109.855 451.708C-303.815 434.738 -480.975 437.582 -610.598 455.883C-675.417 465.035 -728.294 478.045 -765.429 494.343C-783.997 502.493 -798.581 511.444 -808.752 521.107C-818.918 530.763 -824.632 541.085 -825.587 552.004Z" stroke="#2B2C3B" stroke-width="2"/>
<path d="M-828.268 607.753C-828.268 618.714 -823.475 629.495 -814.19 640.001C-804.899 650.513 -791.151 660.701 -773.364 670.438C-737.791 689.912 -686.25 707.48 -622.474 722.247C-494.939 751.776 -318.702 770.049 -124 770.049C70.7012 770.049 246.939 751.776 374.473 722.247C438.249 707.48 489.79 689.912 525.364 670.438C543.151 660.701 556.899 650.513 566.189 640.001C575.474 629.495 580.267 618.714 580.267 607.753C580.267 596.793 575.474 586.012 566.189 575.506C556.899 564.994 543.151 554.806 525.364 545.069C489.79 525.595 438.249 508.027 374.473 493.26C246.939 463.731 70.7012 445.458 -124 445.458C-318.702 445.458 -494.939 463.731 -622.474 493.26C-686.25 508.027 -737.791 525.595 -773.364 545.069C-791.151 554.806 -804.899 564.994 -814.19 575.506C-823.475 586.012 -828.268 596.793 -828.268 607.753Z" stroke="#2B2C3B" stroke-width="2"/>
</g>
</svg>
