<svg width="1440" height="1030" viewBox="0 0 1440 1030" fill="none" xmlns="http://www.w3.org/2000/svg">
<g clip-path="url(#clip0_4462_1017)">
<path d="M1194.17 555.826C1185.48 590.129 1161.17 618.789 1124.57 641.233C1087.96 663.679 1039.09 679.887 981.349 689.283C865.869 708.073 715.02 699.595 556.184 659.373C397.348 619.15 260.645 554.81 168.027 483.322C121.718 447.578 86.4491 410.062 64.9386 372.899C43.4297 335.74 35.6923 298.964 44.3789 264.661C53.0655 230.359 77.3735 201.698 113.976 179.254C150.581 156.809 199.455 140.6 257.195 131.205C372.675 112.414 523.524 120.892 682.36 161.115C841.196 201.337 977.899 265.677 1070.52 337.165C1116.83 372.909 1152.1 410.426 1173.61 447.588C1195.11 484.748 1202.85 521.523 1194.17 555.826Z" stroke="url(#paint0_linear_4462_1017)"/>
<path d="M1454.77 621.82C1442.13 671.733 1406.77 713.418 1353.55 746.049C1300.33 778.681 1229.29 802.238 1145.38 815.892C977.56 843.199 758.355 830.877 527.554 772.431C296.754 713.984 98.1035 620.491 -36.4941 516.601C-103.794 464.656 -155.06 410.126 -186.333 356.098C-217.604 302.073 -228.868 248.58 -216.228 198.667C-203.588 148.754 -168.222 107.069 -115.007 74.4388C-61.7891 41.8067 9.25156 18.2494 93.163 4.59565C260.984 -22.7116 480.189 -10.3896 710.99 48.0569C941.79 106.503 1140.44 199.996 1275.04 303.886C1342.34 355.831 1393.6 410.361 1424.88 464.389C1456.15 518.414 1467.41 571.908 1454.77 621.82Z" stroke="url(#paint1_linear_4462_1017)"/>
<path d="M1771.88 702.123C1754.43 771.03 1705.61 828.564 1632.18 873.589C1558.75 918.617 1460.73 951.116 1344.98 969.951C1113.47 1007.62 811.085 990.622 492.717 910.001C174.349 829.379 -99.6792 700.413 -285.358 557.096C-378.198 485.437 -448.931 410.205 -492.082 335.655C-535.232 261.107 -550.787 187.272 -533.337 118.365C-515.888 49.4573 -467.066 -8.07606 -393.636 -53.1017C-320.204 -98.129 -222.19 -130.628 -106.433 -149.464C125.077 -187.134 427.459 -170.135 745.827 -89.5132C1064.2 -8.89175 1338.22 120.075 1523.9 263.392C1616.74 335.051 1687.47 410.283 1730.63 484.833C1773.78 559.38 1789.33 633.216 1771.88 702.123Z" stroke="url(#paint2_linear_4462_1017)"/>
</g>
<defs>
<linearGradient id="paint0_linear_4462_1017" x1="84.1959" y1="244.796" x2="1080.26" y2="658.025" gradientUnits="userSpaceOnUse">
<stop stop-color="#484848"/>
<stop offset="0.491388" stop-color="#484848" stop-opacity="0.36"/>
<stop offset="1" stop-color="#484848"/>
</linearGradient>
<linearGradient id="paint1_linear_4462_1017" x1="-158.157" y1="169.859" x2="1289.05" y2="770.253" gradientUnits="userSpaceOnUse">
<stop stop-color="#484848"/>
<stop offset="0.491388" stop-color="#484848" stop-opacity="0.36"/>
<stop offset="1" stop-color="#484848"/>
</linearGradient>
<linearGradient id="paint2_linear_4462_1017" x1="-453.055" y1="78.6755" x2="1543.11" y2="906.813" gradientUnits="userSpaceOnUse">
<stop stop-color="#484848"/>
<stop offset="0.491388" stop-color="#484848" stop-opacity="0.36"/>
<stop offset="1" stop-color="#484848"/>
</linearGradient>
<clipPath id="clip0_4462_1017">
<rect width="1440" height="1045" fill="white" transform="translate(-0.5 -15)"/>
</clipPath>
</defs>
</svg>
