<svg width="1125" height="545" viewBox="0 0 1125 545" fill="none" xmlns="http://www.w3.org/2000/svg">
<path opacity="0.5" d="M1.59439 512.443L1125 512.443M514.557 545L514.557 1.59202M1092.31 545L1092.31 1.59199M1.59437 96.8956L1125 96.8956M97.2919 545L97.2919 1.59204M675.043 545L675.043 1.59201M1.59439 480.478L1125 480.478M482.46 545L482.46 1.59202M1060.21 545L1060.21 1.59199M1.59437 64.9305L1125 64.9304M65.1946 545L65.1946 1.59204M642.946 545L642.946 1.59201M1.59439 448.513L1125 448.513M450.362 545L450.362 1.59202M1028.11 545L1028.11 1.592M1.59437 32.9652L1125 32.9652M33.0973 545L33.0973 1.59204M610.849 545L610.849 1.59201M1.59439 416.547L1125 416.547M418.265 545L418.265 1.59202M996.016 545L996.016 1.592M1.59437 1.00006L563.297 1.0001L1125 1.00007M1 545L0.999976 1.59204M578.751 545L578.751 1.59202M1.59439 384.582L1125 384.582M386.168 545L386.168 1.59202M963.919 545L963.919 1.592M1.59439 352.617L1125 352.617M354.07 545L354.07 1.59203M931.822 545L931.822 1.592M1.59438 320.652L1125 320.652M321.973 545L321.973 1.59203M899.724 545L899.724 1.592M1.59438 288.687L1125 288.687M289.876 545L289.876 1.59203M867.627 545L867.627 1.592M1.59438 256.721L1125 256.721M257.778 545L257.778 1.59203M835.53 545L835.53 1.592M1.59438 224.756L1125 224.756M225.681 545L225.681 1.59203M803.433 545L803.433 1.59201M1.59438 192.791L1125 192.791M193.584 545L193.584 1.59203M771.335 545L771.335 1.59201M1.59438 160.826L1125 160.826M161.487 545L161.487 1.59203M739.238 545L739.238 1.59201M1.59439 544.408L563.297 544.408L1125 544.408M546.654 545L546.654 1.59202M1124.41 545L1124.41 1.59199M1.59438 128.861L1125 128.861M129.389 545L129.389 1.59204M707.141 545L707.141 1.59201" stroke="url(#paint0_radial_4031_294)"/>
<defs>
<radialGradient id="paint0_radial_4031_294" cx="0" cy="0" r="1" gradientUnits="userSpaceOnUse" gradientTransform="translate(563 273) scale(562 272)">
<stop stop-color="#2475EE"/>
<stop offset="1" stop-color="#2475EE" stop-opacity="0"/>
</radialGradient>
</defs>
</svg>
